FILE "A-Rank Thunder Tanjouhen (1993)(Riot)(JP).img" BINARY
  TRACK 01 MODE1/2352
    INDEX 01 00:00:00
  TRACK 02 AUDIO
    PREGAP 00:02:00
    INDEX 01 14:57:64
  TRACK 03 AUDIO
    INDEX 00 15:05:39
    INDEX 01 15:07:38
  TRACK 04 AUDIO
    INDEX 00 17:42:17
    INDEX 01 17:44:16
  TRACK 05 AUDIO
    INDEX 00 19:14:20
    INDEX 01 19:16:19
  TRACK 06 AUDIO
    INDEX 00 19:22:24
    INDEX 01 19:24:23
  TRACK 07 AUDIO
    INDEX 00 20:57:57
    INDEX 01 20:59:56
  TRACK 08 AUDIO
    INDEX 00 22:31:53
    INDEX 01 22:33:52
  TRACK 09 AUDIO
    INDEX 00 24:05:11
    INDEX 01 24:07:10
  TRACK 10 AUDIO
    INDEX 00 26:12:08
    INDEX 01 26:14:07
  TRACK 11 AUDIO
    INDEX 00 28:17:11
    INDEX 01 28:19:10
  TRACK 12 AUDIO
    INDEX 00 30:20:18
    INDEX 01 30:22:17
  TRACK 13 AUDIO
    INDEX 00 30:28:56
    INDEX 01 30:30:55
  TRACK 14 AUDIO
    INDEX 00 31:02:53
    INDEX 01 31:04:52
  TRACK 15 AUDIO
    INDEX 00 31:11:16
    INDEX 01 31:13:15
  TRACK 16 AUDIO
    INDEX 00 31:24:04
    INDEX 01 31:26:03
  TRACK 17 AUDIO
    INDEX 00 31:35:66
    INDEX 01 31:37:65
  TRACK 18 AUDIO
    INDEX 00 31:52:08
    INDEX 01 31:54:07
  TRACK 19 AUDIO
    INDEX 00 32:00:23
    INDEX 01 32:02:22
  TRACK 20 AUDIO
    INDEX 00 32:08:61
    INDEX 01 32:10:60
  TRACK 21 AUDIO
    INDEX 00 32:17:32
    INDEX 01 32:19:31
  TRACK 22 AUDIO
    INDEX 00 32:40:02
    INDEX 01 32:42:01
  TRACK 23 AUDIO
    INDEX 00 33:46:31
    INDEX 01 33:48:30
  TRACK 24 AUDIO
    INDEX 00 33:55:25
    INDEX 01 33:57:24
  TRACK 25 AUDIO
    INDEX 00 34:03:24
    INDEX 01 34:05:23
  TRACK 26 AUDIO
    INDEX 00 34:11:29
    INDEX 01 34:13:28
  TRACK 27 AUDIO
    INDEX 00 34:19:28
    INDEX 01 34:21:27
  TRACK 28 AUDIO
    INDEX 00 34:28:08
    INDEX 01 34:30:07
  TRACK 29 AUDIO
    INDEX 00 34:38:15
    INDEX 01 34:40:14
  TRACK 30 AUDIO
    INDEX 00 35:06:31
    INDEX 01 35:08:30
  TRACK 31 AUDIO
    INDEX 00 35:17:67
    INDEX 01 35:19:66
  TRACK 32 AUDIO
    INDEX 00 35:36:53
    INDEX 01 35:38:52
  TRACK 33 AUDIO
    INDEX 00 36:00:37
    INDEX 01 36:02:36
  TRACK 34 AUDIO
    INDEX 00 36:24:33
    INDEX 01 36:26:32
  TRACK 35 AUDIO
    INDEX 00 36:49:23
    INDEX 01 36:51:22
  TRACK 36 AUDIO
    INDEX 00 37:14:23
    INDEX 01 37:16:22
  TRACK 37 AUDIO
    INDEX 00 37:36:44
    INDEX 01 37:38:43
  TRACK 38 AUDIO
    INDEX 00 37:46:30
    INDEX 01 37:48:29
  TRACK 39 AUDIO
    INDEX 00 38:01:14
    INDEX 01 38:03:13
  TRACK 40 AUDIO
    INDEX 00 38:19:44
    INDEX 01 38:21:43
  TRACK 41 AUDIO
    INDEX 00 38:32:20
    INDEX 01 38:34:19
  TRACK 42 AUDIO
    INDEX 00 38:50:49
    INDEX 01 38:52:48
  TRACK 43 AUDIO
    INDEX 00 39:08:24
    INDEX 01 39:10:23
  TRACK 44 AUDIO
    INDEX 00 39:23:58
    INDEX 01 39:25:57
  TRACK 45 AUDIO
    INDEX 00 39:42:09
    INDEX 01 39:44:08
  TRACK 46 AUDIO
    INDEX 00 40:02:60
    INDEX 01 40:04:59
  TRACK 47 AUDIO
    INDEX 00 40:21:46
    INDEX 01 40:23:45
  TRACK 48 AUDIO
    INDEX 00 40:36:27
    INDEX 01 40:38:26
  TRACK 49 AUDIO
    INDEX 00 40:52:29
    INDEX 01 40:54:28
  TRACK 50 AUDIO
    INDEX 00 41:11:35
    INDEX 01 41:13:34
  TRACK 51 AUDIO
    INDEX 00 41:28:55
    INDEX 01 41:30:54
  TRACK 52 AUDIO
    INDEX 00 41:44:74
    INDEX 01 41:46:73
  TRACK 53 AUDIO
    INDEX 00 42:00:69
    INDEX 01 42:02:68
  TRACK 54 AUDIO
    INDEX 00 44:13:62
    INDEX 01 44:15:61
  TRACK 55 AUDIO
    INDEX 00 46:47:11
    INDEX 01 46:49:10
